<svg xmlns="http://www.w3.org/2000/svg" width="1920" height="720" viewBox="0 0 1920 720" role="img" aria-label="Premium river aerial background">
  <defs>
    <linearGradient id="sky" x1="0" x2="1" y1="0" y2="1">
      <stop offset="0" stop-color="#143a46"/>
      <stop offset="0.42" stop-color="#0f5d6f"/>
      <stop offset="1" stop-color="#e1efe7"/>
    </linearGradient>
    <linearGradient id="river" x1="0.1" x2="0.9" y1="0" y2="1">
      <stop offset="0" stop-color="#8ed8df" stop-opacity="0.92"/>
      <stop offset="0.32" stop-color="#1a8294" stop-opacity="0.96"/>
      <stop offset="0.68" stop-color="#0c4c61" stop-opacity="0.98"/>
      <stop offset="1" stop-color="#b6e9e4" stop-opacity="0.9"/>
    </linearGradient>
    <linearGradient id="bankA" x1="0" x2="1">
      <stop offset="0" stop-color="#e8d6a7"/>
      <stop offset="0.5" stop-color="#9aac73"/>
      <stop offset="1" stop-color="#e6c987"/>
    </linearGradient>
    <linearGradient id="bankB" x1="1" x2="0">
      <stop offset="0" stop-color="#f0d7a8"/>
      <stop offset="0.42" stop-color="#6f9c79"/>
      <stop offset="1" stop-color="#c56c4f"/>
    </linearGradient>
    <filter id="soft" x="-10%" y="-20%" width="120%" height="140%">
      <feGaussianBlur stdDeviation="10"/>
    </filter>
    <filter id="shadow" x="-10%" y="-10%" width="120%" height="120%">
      <feDropShadow dx="0" dy="18" stdDeviation="18" flood-color="#082832" flood-opacity="0.28"/>
    </filter>
    <pattern id="grid" width="74" height="74" patternUnits="userSpaceOnUse">
      <path d="M74 0H0V74" fill="none" stroke="#ffffff" stroke-opacity="0.07" stroke-width="1"/>
    </pattern>
  </defs>
  <rect width="1920" height="720" fill="url(#sky)"/>
  <rect width="1920" height="720" fill="url(#grid)" opacity="0.8"/>
  <path d="M-80 84C210 24 310 154 526 126C816 88 972-74 1242 52C1452 150 1662 122 2020 52V720H-80Z" fill="url(#bankA)" opacity="0.76"/>
  <path d="M-80 540C190 456 346 586 596 520C852 452 998 332 1268 392C1512 446 1686 616 2020 492V720H-80Z" fill="url(#bankB)" opacity="0.8"/>
  <path d="M-120 352C168 144 404 480 684 286C902 136 1042 84 1248 184C1430 272 1514 444 1706 370C1810 330 1878 238 2024 228" fill="none" stroke="#f7f4df" stroke-width="190" stroke-linecap="round" opacity="0.22" filter="url(#soft)"/>
  <path d="M-120 342C162 130 402 464 674 276C904 116 1042 84 1258 176C1452 258 1518 438 1712 360C1824 316 1886 230 2024 218" fill="none" stroke="url(#river)" stroke-width="136" stroke-linecap="round" filter="url(#shadow)"/>
  <path d="M-92 332C174 154 390 428 650 270C884 128 1040 124 1240 204C1420 276 1510 416 1692 354C1814 312 1880 258 2002 236" fill="none" stroke="#d9ffff" stroke-width="4" stroke-linecap="round" opacity="0.42"/>
  <path d="M42 262C256 200 338 384 548 310M866 190C996 154 1080 176 1212 232M1366 284C1468 350 1546 392 1660 360" fill="none" stroke="#ffffff" stroke-opacity="0.18" stroke-width="18" stroke-linecap="round"/>
  <g opacity="0.55">
    <path d="M212 96h168v62H212zM430 82h104v82H430zM1430 74h124v70h-124zM1602 92h178v58h-178z" fill="#f0d7a8"/>
    <path d="M230 112h28v46h-28zM278 112h28v46h-28zM446 98h26v66h-26zM1450 90h28v54h-28zM1630 108h34v42h-34z" fill="#0f5d6f" opacity="0.45"/>
    <path d="M248 620h168v44H248zM470 604h132v58H470zM1328 548h188v54h-188z" fill="#b55239" opacity="0.62"/>
  </g>
  <g fill="#fff7d0" opacity="0.75">
    <circle cx="1480" cy="102" r="4"/>
    <circle cx="1512" cy="118" r="3"/>
    <circle cx="1548" cy="86" r="3"/>
    <circle cx="318" cy="132" r="3"/>
    <circle cx="356" cy="108" r="4"/>
    <circle cx="1124" cy="202" r="3"/>
  </g>
  <rect width="1920" height="720" fill="#062631" opacity="0.2"/>
</svg>
